<?xml version="1.0" encoding="UTF-8" standalone="no"?>
<!-- Created with Inkscape (http://www.inkscape.org/) -->

<svg
   xmlns:dc="http://purl.org/dc/elements/1.1/"
   xmlns:cc="http://creativecommons.org/ns#"
   xmlns:rdf="http://www.w3.org/1999/02/22-rdf-syntax-ns#"
   xmlns:svg="http://www.w3.org/2000/svg"
   xmlns="http://www.w3.org/2000/svg"
   xmlns:sodipodi="http://sodipodi.sourceforge.net/DTD/sodipodi-0.dtd"
   xmlns:inkscape="http://www.inkscape.org/namespaces/inkscape"
   width="58.987621mm"
   height="57.240665mm"
   viewBox="0 0 209.01126 202.82125"
   id="svg2"
   version="1.1"
   inkscape:version="0.91 r13725"
   sodipodi:docname="TimeStampClient.svg">
  <defs
     id="defs4">
    <clipPath
       id="clipPath4150"
       clipPathUnits="userSpaceOnUse">
      <path
         inkscape:connector-curvature="0"
         id="path4152"
         d="m 0,1892 1056,0 L 1056,0 0,0 0,1892 Z" />
    </clipPath>
  </defs>
  <sodipodi:namedview
     id="base"
     pagecolor="#ffffff"
     bordercolor="#666666"
     borderopacity="1.0"
     inkscape:pageopacity="0.0"
     inkscape:pageshadow="2"
     inkscape:zoom="3.9492902"
     inkscape:cx="104.50563"
     inkscape:cy="101.41063"
     inkscape:document-units="px"
     inkscape:current-layer="layer1"
     showgrid="false"
     fit-margin-top="0"
     fit-margin-left="0"
     fit-margin-right="0"
     fit-margin-bottom="0"
     inkscape:window-width="1914"
     inkscape:window-height="970"
     inkscape:window-x="-8"
     inkscape:window-y="-8"
     inkscape:window-maximized="1" />
  <metadata
     id="metadata7">
    <rdf:RDF>
      <cc:Work
         rdf:about="">
        <dc:format>image/svg+xml</dc:format>
        <dc:type
           rdf:resource="http://purl.org/dc/dcmitype/StillImage" />
        <dc:title></dc:title>
      </cc:Work>
    </rdf:RDF>
  </metadata>
  <g
     inkscape:label="Vrstva 1"
     inkscape:groupmode="layer"
     id="layer1"
     transform="translate(-185.77989,-415.6316)">
    <g
       id="g4490"
       transform="matrix(1.25,0,0,-1.25,287.17534,609.97472)">
      <path
         d="m 0,0 c -40.974,0 -74.321,33.336 -74.334,74.312 0.013,41.005 33.364,74.37 74.347,74.379 40.981,0 74.332,-33.354 74.35,-74.35 C 74.363,33.347 41.005,0 0,0"
         style="fill:#ffffff;fill-opacity:1;fill-rule:nonzero;stroke:none"
         id="path4492"
         inkscape:connector-curvature="0" />
    </g>
    <g
       id="g4494"
       transform="matrix(1.25,0,0,-1.25,287.17614,601.53859)">
      <path
         d="m 0,0 c -37.255,0 -67.575,30.311 -67.586,67.566 0.011,37.282 30.337,67.62 67.601,67.628 37.259,0 67.584,-30.326 67.6,-67.603 C 67.615,30.32 37.283,0 0,0"
         style="fill:#ffffff;fill-opacity:1;fill-rule:nonzero;stroke:none"
         id="path4496"
         inkscape:connector-curvature="0" />
    </g>
    <g
       id="g4498"
       transform="matrix(1.25,0,0,-1.25,281.56934,456.47259)">
      <path
         d="m 0,0 0,-41.657 0,-15.355 c 0,-2.484 2.014,-4.498 4.499,-4.498 2.484,0 4.498,2.014 4.498,4.498 l 0,15.355 L 8.997,0 0,0 Z"
         style="fill:#ef4d37;fill-opacity:1;fill-rule:nonzero;stroke:none"
         id="path4500"
         inkscape:connector-curvature="0" />
    </g>
    <g
       id="g4502"
       transform="matrix(1.25,0,0,-1.25,287.19574,435.37897)">
      <path
         d="m 0,0 c -36.015,-0.009 -65.324,-29.33 -65.335,-65.362 0.011,-36.005 29.314,-65.299 65.319,-65.299 36.034,0 65.349,29.305 65.349,65.324 C 65.317,-29.311 36.009,0 0,0 Z m -0.016,-144.191 c -43.464,0 -78.837,35.362 -78.851,78.829 0.014,43.493 35.392,78.883 78.865,78.892 19.785,0 38.579,-7.335 53.172,-20.705 L 69.602,9.258 c 0.424,0.426 1.001,0.664 1.602,0.664 0.602,0 1.178,-0.238 1.603,-0.664 L 83.146,-1.08 c 0.425,-0.425 0.664,-1.001 0.664,-1.603 0,-0.601 -0.239,-1.177 -0.664,-1.602 L 65.671,-21.762 c 8.631,-12.957 13.186,-27.98 13.192,-43.572 0,-43.482 -35.384,-78.857 -78.879,-78.857"
         style="fill:#373535;fill-opacity:1;fill-rule:nonzero;stroke:none"
         id="path4504"
         inkscape:connector-curvature="0" />
    </g>
    <g
       id="g4506"
       transform="matrix(1.25,0,0,-1.25,287.17614,595.8716)">
      <path
         d="m 0,0 c -34.756,0 -63.042,28.277 -63.053,63.034 0.011,34.78 28.304,63.085 63.069,63.093 34.759,0 63.051,-28.294 63.065,-63.072 C 63.081,28.287 34.783,0 0,0 m 0.014,144.192 -0.001,0 c -44.722,-0.009 -81.117,-36.417 -81.13,-81.158 0.013,-44.719 36.402,-81.099 81.117,-81.099 44.744,0 81.146,36.392 81.146,81.124 C 81.14,78.48 76.81,93.358 68.587,106.328 l 16.177,16.178 c 0.851,0.85 1.328,2.003 1.328,3.206 0,1.202 -0.477,2.356 -1.328,3.206 l -10.338,10.337 c -0.885,0.885 -2.046,1.328 -3.206,1.328 -1.16,0 -2.32,-0.443 -3.206,-1.328 L 53.097,124.337 C 38.325,137.173 19.644,144.192 0.014,144.192 M 0,-4.534 c 37.283,0 67.615,30.321 67.615,67.591 -0.016,37.277 -30.341,67.604 -67.6,67.604 -37.264,-0.009 -67.59,-30.347 -67.601,-67.628 C -67.575,25.778 -37.255,-4.534 0,-4.534 m 0.014,144.192 c 20.661,0 39.426,-8.243 53.219,-21.597 L 71.22,136.049 81.559,125.712 62.754,106.906 C 71.468,94.474 76.606,79.359 76.612,63.059 76.612,20.827 42.244,-13.531 0,-13.531 c -42.216,0 -76.571,34.346 -76.584,76.564 0.013,42.243 34.375,76.616 76.598,76.625"
         style="fill:#ffffff;fill-opacity:1;fill-rule:nonzero;stroke:none"
         id="path4508"
         inkscape:connector-curvature="0" />
    </g>
  </g>
</svg>
